<?xml version="1.0" encoding="UTF-8" standalone="no"?>
<!-- Created with Inkscape (http://www.inkscape.org/) -->

<svg
   xmlns:dc="http://purl.org/dc/elements/1.1/"
   xmlns:cc="http://creativecommons.org/ns#"
   xmlns:rdf="http://www.w3.org/1999/02/22-rdf-syntax-ns#"
   xmlns:svg="http://www.w3.org/2000/svg"
   xmlns="http://www.w3.org/2000/svg"
   xmlns:xlink="http://www.w3.org/1999/xlink"
   xmlns:sodipodi="http://sodipodi.sourceforge.net/DTD/sodipodi-0.dtd"
   xmlns:inkscape="http://www.inkscape.org/namespaces/inkscape"
   width="64"
   height="64"
   viewBox="0 0 16.933333 16.933333"
   version="1.1"
   id="svg821"
   inkscape:version="0.92.2 2405546, 2018-03-11"
   sodipodi:docname="rock.svg"
   inkscape:export-filename="/home/denis/Development/Gamedev/jams/gwj2-game/assets/images/rock.png"
   inkscape:export-xdpi="401.4296"
   inkscape:export-ydpi="401.4296">
  <defs
     id="defs815">
    <linearGradient
       inkscape:collect="always"
       id="linearGradient2941">
      <stop
         style="stop-color:#c94ac6;stop-opacity:1;"
         offset="0"
         id="stop2937" />
      <stop
         style="stop-color:#4a5ec9;stop-opacity:1"
         offset="1"
         id="stop2939" />
    </linearGradient>
    <linearGradient
       inkscape:collect="always"
       id="linearGradient1405">
      <stop
         style="stop-color:#272727;stop-opacity:1"
         offset="0"
         id="stop1401" />
      <stop
         style="stop-color:#800080;stop-opacity:0.24122807"
         offset="1"
         id="stop1403" />
    </linearGradient>
    <radialGradient
       inkscape:collect="always"
       xlink:href="#linearGradient1405"
       id="radialGradient1411"
       cx="8.0426188"
       cy="288.85199"
       fx="8.0426188"
       fy="288.85199"
       r="3.9699242"
       gradientTransform="matrix(1,0,0,0.86114067,0,40.109794)"
       gradientUnits="userSpaceOnUse" />
    <radialGradient
       inkscape:collect="always"
       xlink:href="#linearGradient2941"
       id="radialGradient2945"
       cx="8.4791603"
       cy="288.6611"
       fx="8.4791574"
       fy="288.66107"
       r="4.4130166"
       gradientTransform="matrix(0.87638784,-0.64906829,0.79317248,1.0709608,-227.90992,-14.980062)"
       gradientUnits="userSpaceOnUse" />
  </defs>
  <sodipodi:namedview
     id="base"
     pagecolor="#ffffff"
     bordercolor="#666666"
     borderopacity="1.0"
     inkscape:pageopacity="0.0"
     inkscape:pageshadow="2"
     inkscape:zoom="15.839192"
     inkscape:cx="39.742337"
     inkscape:cy="26.579003"
     inkscape:document-units="mm"
     inkscape:current-layer="layer1"
     showgrid="false"
     units="px"
     inkscape:window-width="1920"
     inkscape:window-height="1027"
     inkscape:window-x="0"
     inkscape:window-y="0"
     inkscape:window-maximized="1" />
  <metadata
     id="metadata818">
    <rdf:RDF>
      <cc:Work
         rdf:about="">
        <dc:format>image/svg+xml</dc:format>
        <dc:type
           rdf:resource="http://purl.org/dc/dcmitype/StillImage" />
        <dc:title></dc:title>
      </cc:Work>
    </rdf:RDF>
  </metadata>
  <g
     inkscape:label="Layer 1"
     inkscape:groupmode="layer"
     id="layer1"
     transform="translate(0,-280.06665)">
    <path
       style="fill:url(#radialGradient2945);stroke:#c94ac6;stroke-width:0.26458332px;stroke-linecap:butt;stroke-linejoin:miter;stroke-opacity:1;fill-opacity:1"
       d="m 8.1264881,285.32997 c -0.5221187,0.10442 0.071436,0.002 -0.5197174,0.0473 -0.1129045,0.009 -0.4898416,0.0738 -0.6142114,0.0945 -0.094494,0.0158 -0.1910601,0.022 -0.283482,0.0473 -0.081823,0.0223 -0.1539562,0.0739 -0.236235,0.0945 -0.1080374,0.027 -0.2215296,0.0254 -0.3307292,0.0473 -0.1214467,0.0243 -0.5777786,0.14534 -0.7087055,0.18899 -0.069454,0.0231 -0.3531889,0.13753 -0.4252233,0.18898 -0.2756074,0.19687 -0.026249,0.0787 -0.236235,0.23624 -0.085691,0.0643 -0.1311244,0.026 -0.1889879,0.14174 -0.014087,0.0282 0.00996,0.0646 0,0.0945 -0.00196,0.006 -0.1336355,0.13769 -0.1417413,0.14174 -0.014086,0.007 -0.036111,-0.0111 -0.047247,0 -0.011136,0.0111 0,0.0315 0,0.0473 0,0.0329 0.00854,0.21915 0,0.23624 -0.00996,0.0199 -0.037286,0.0273 -0.047247,0.0472 -0.00704,0.0141 0.00498,0.0323 0,0.0473 -0.022273,0.0668 -0.062996,0.12599 -0.094494,0.18899 -0.015748,0.0315 -0.038706,0.0603 -0.047247,0.0945 -0.010708,0.0428 0,0.18135 0,0.23624 0,0.15749 0,0.31498 0,0.47247 0,0.25198 0,0.50397 0,0.75595 0,0.0788 0,0.15749 0,0.23624 0,0.0157 0,0.0315 0,0.0472 0,0.0158 -0.00874,0.0342 0,0.0473 0.053859,0.0808 0.160415,0.13844 0.2362351,0.18899 0.047247,0.0315 0.089019,0.0734 0.1417413,0.0945 0.029245,0.0117 0.063608,-0.006 0.094494,0 0.023064,0.005 0.2047372,0.063 0.2362353,0.0945 0.011136,0.0111 -0.00704,0.0332 0,0.0472 0.01992,0.0399 0.074573,0.0547 0.094494,0.0945 0.00719,0.0144 0,0.12046 0,0.14174 0,0.0787 0,0.15749 0,0.23623 0,0.0315 0.00618,0.0636 0,0.0945 -0.00977,0.0488 -0.039059,0.0926 -0.047247,0.14174 -0.00777,0.0466 0,0.0945 0,0.14174 0,0.0473 0,0.0945 0,0.14174 0,0.14174 0,0.28348 0,0.42522 0,0.0473 0,0.0945 0,0.14175 0,0.0315 -0.00618,0.0636 0,0.0945 0.00977,0.0488 0.03748,0.0929 0.047247,0.14174 0.00938,0.0469 0,0.1866 0,0.23624 0,0.0157 -0.00498,0.0323 0,0.0472 0.011136,0.0334 0.031498,0.063 0.047247,0.0945 0.015748,0.0315 0.022347,0.0696 0.047247,0.0945 0.024903,0.0249 0.066321,0.0261 0.094494,0.0472 0.4042024,0.30315 -0.3562948,-0.1766 0.2834823,0.18899 0.049302,0.0282 0.086653,0.0807 0.141741,0.0945 0.076394,0.0191 0.1578808,-0.008 0.236235,0 0.1295443,0.0129 0.2960865,0.0658 0.4252233,0.0945 0.2347039,0.0522 0.4754782,0.0834 0.7087052,0.14174 0.048316,0.0121 0.094494,0.0315 0.1417413,0.0472 0.047247,0.0158 0.0955,0.0288 0.141741,0.0473 0.032697,0.0131 0.059962,0.0403 0.094494,0.0473 0.04633,0.009 0.095412,-0.009 0.141741,0 0.085514,-0.0285 0.087871,0.0765 0.1417409,0.0945 0.029882,0.01 0.063608,-0.006 0.094494,0 0.048836,0.01 0.092616,0.0391 0.1417413,0.0472 0.059875,0.01 0.3710879,0 0.425223,0 0.3307291,0 0.6614586,0 0.9921877,0 0.094494,0 0.1889879,0 0.283482,0 0.047247,0 0.094859,-0.006 0.141741,0 0.079685,0.01 0.1562605,0.04 0.2362353,0.0472 0.094106,0.009 0.1889879,0 0.2834819,0 0.07874,0 0.157881,0.008 0.236235,0 0.07991,-0.008 0.157226,-0.0329 0.236235,-0.0472 0.09425,-0.0171 0.189966,-0.0265 0.283482,-0.0472 0.09723,-0.0216 0.185811,-0.075 0.283483,-0.0945 0.03089,-0.006 0.06394,0.008 0.09449,0 0.03416,-0.009 0.063,-0.0315 0.09449,-0.0473 0.0315,-0.0158 0.06519,-0.0277 0.09449,-0.0473 0.05414,-0.0361 0.126648,-0.12862 0.141741,-0.18899 0.0076,-0.0306 -0.0076,-0.0639 0,-0.0945 0.0085,-0.0342 0.03611,-0.0611 0.04725,-0.0945 0.02053,-0.0616 0.02941,-0.12656 0.04725,-0.18899 0.01368,-0.0479 0.03517,-0.0934 0.04725,-0.14174 0.01948,-0.0779 0.02777,-0.15833 0.04725,-0.23624 0.02416,-0.0966 0.07496,-0.18581 0.09449,-0.28348 0.01036,-0.0518 0,-0.21802 0,-0.28348 0,-0.0315 -0.0062,-0.0636 0,-0.0945 0.0098,-0.0488 0.0315,-0.0945 0.04725,-0.14174 0.01575,-0.0473 0.02497,-0.0972 0.04725,-0.14174 0.02539,-0.0508 0.06632,-0.0924 0.09449,-0.14174 0.03494,-0.0611 0.05717,-0.12926 0.09449,-0.18899 0.04173,-0.0668 0.106525,-0.11855 0.141741,-0.18899 0.02904,-0.0581 0.02445,-0.12818 0.04725,-0.18898 0.05537,-0.14765 0.157504,-0.26781 0.188988,-0.42523 0.0062,-0.0309 0,-0.063 0,-0.0945 0,-0.0315 0,-0.063 0,-0.0945 0,-0.0157 0.007,-0.0332 0,-0.0472 -0.02539,-0.0508 -0.06528,-0.093 -0.09449,-0.14174 -0.01812,-0.0302 -0.02612,-0.0663 -0.04725,-0.0945 -0.04937,-0.0658 -0.129381,-0.12938 -0.188988,-0.18899 -0.02487,-0.0249 -0.116507,-0.12912 -0.141741,-0.14174 -0.01409,-0.007 -0.03611,0.0111 -0.04725,0 -0.01114,-0.0111 0,-0.0315 0,-0.0472 0,-0.0158 0,-0.0315 0,-0.0473 0,-0.17324 0,-0.34648 0,-0.51972 0,-0.063 -0.0078,-0.12648 0,-0.18899 0.01849,-0.14796 0.08755,-0.28974 0.141741,-0.42522 0.0315,-0.0787 0.063,-0.15749 0.09449,-0.23623 0.0315,-0.0788 0.05657,-0.16038 0.09449,-0.23624 0.02539,-0.0508 0.06632,-0.0924 0.09449,-0.14174 0.03494,-0.0611 0.05955,-0.12784 0.09449,-0.18899 0.02817,-0.0493 0.0691,-0.0909 0.09449,-0.14174 0.0072,-0.0144 0,-0.12046 0,-0.14174 0,-0.0213 0.0072,-0.12736 0,-0.14174 -0.0289,-0.0578 -0.0957,-0.06 -0.141741,-0.0945 -0.07127,-0.0534 -0.112594,-0.14315 -0.188988,-0.18898 -0.0427,-0.0256 -0.09449,-0.0315 -0.141741,-0.0473 -0.470096,-0.1567 0.111362,0.0445 -0.236235,-0.0945 -0.04624,-0.0185 -0.0972,-0.025 -0.141741,-0.0472 -0.193896,-0.0969 -0.08975,-0.0718 -0.236235,-0.18899 -0.08868,-0.0709 -0.203178,-0.10868 -0.283482,-0.18899 -0.04015,-0.0401 -0.05434,-0.10159 -0.09449,-0.14174 -0.08707,-0.0871 -0.143028,-0.0858 -0.236236,-0.14174 -0.04869,-0.0292 -0.09305,-0.0653 -0.141741,-0.0945 -0.06039,-0.0362 -0.130385,-0.0554 -0.188988,-0.0945 -0.03706,-0.0247 -0.05223,-0.0804 -0.09449,-0.0945 -0.02988,-0.01 -0.06394,0.008 -0.09449,0 -0.06833,-0.0171 -0.122171,-0.0722 -0.188988,-0.0945 -0.02817,-0.009 -0.237706,0 -0.283482,0 -0.204737,0 -0.4094742,0 -0.6142112,0 -0.045776,0 -0.2553102,-0.009 -0.2834822,0 -0.033409,0.0111 -0.065193,0.0277 -0.094494,0.0473 -0.018531,0.0123 -0.025638,0.0418 -0.047247,0.0472 -0.045836,0.0115 -0.095137,-0.008 -0.141741,0 -0.1343134,0.0224 -0.1260721,0.0504 -0.2362354,0.0945 -0.096043,0.0384 -0.1531329,0.0391 -0.236235,0.0945 -0.04301,0.0287 -0.099864,0.1208 -0.141741,0.14174 -0.017087,0.009 -0.2033731,0 -0.2362351,0 -0.015748,0 -0.036111,-0.0111 -0.047247,0 -0.011136,0.0111 0,0.0315 0,0.0472 -0.015749,0 -0.036111,-0.0111 -0.047247,0 -0.022273,0.0223 0.022273,0.0722 0,0.0945 -0.011136,0.0111 -0.033161,-0.007 -0.047247,0 -0.019921,0.01 -0.031498,0.0315 -0.047247,0.0472 -0.015748,0.0157 -0.031498,0.0315 -0.047247,0.0472 -0.015748,0.0158 -0.031498,0.0315 -0.047247,0.0473 -0.015748,0 -0.036111,-0.0111 -0.047247,0 -0.011136,0.0111 0.00704,0.0332 0,0.0473 -0.00996,0.0199 -0.037286,0.0273 -0.047247,0.0472 -0.00719,0.0144 0,0.12047 0,0.14174"
       id="path1366"
       inkscape:connector-curvature="0" />
    <path
       id="path1382"
       style="fill:none;stroke:url(#radialGradient1411);stroke-width:0.26458332px;stroke-linecap:butt;stroke-linejoin:miter;stroke-opacity:1"
       d="m 9.4021568,286.889 c -0.031498,0.0945 -0.072883,0.18633 -0.094493,0.2836 -0.010713,0.0482 0,0.31981 0,0.37798 v 0.47247 c 0,0.0247 -0.00621,0.17656 0,0.18899 0.00996,0.0199 0.031498,0.0315 0.047247,0.0472 0.015748,0.0158 0.027326,0.0373 0.047247,0.0473 0.065171,0.0326 0.042261,-0.0572 0.094494,0.0472 0.00704,0.0141 -0.00704,0.0332 0,0.0472 0.00996,0.0199 0.031498,0.0315 0.047247,0.0472 0.015748,0.0158 0.027326,0.0373 0.047247,0.0473 0.028173,0.0141 0.072222,-0.0223 0.094494,0 0.022273,0.0223 -0.022273,0.0722 0,0.0945 0.011136,0.0111 0.040204,-0.0141 0.047247,0 0.014086,0.0282 -0.00764,0.0639 0,0.0945 0.00854,0.0342 0.031498,0.063 0.047247,0.0945 0.015748,0.0315 0.027713,0.0652 0.047247,0.0945 0.012353,0.0185 0.034892,0.0287 0.047247,0.0472 0.024924,0.0374 0.1278372,0.24177 0.1417412,0.28348 0.0099,0.0297 0,0.19365 0,0.23624 v 0.14174 m -4.7247021,-1.37019 c 0,-0.0315 -0.020143,-0.0702 -3e-7,-0.0944 0.1824659,-0.21886 0.4717018,-0.28979 0.7087052,-0.42522 0.098604,-0.0564 0.1819042,-0.1382 0.2834823,-0.18899 0.2853608,-0.14268 0.020005,0.007 0.2362351,-0.0473 0.034164,-0.009 0.061797,-0.0342 0.094494,-0.0472 0.046241,-0.0185 0.0955,-0.0288 0.141741,-0.0473 0.032697,-0.0131 0.061085,-0.0361 0.094494,-0.0472 0.014941,-0.005 0.031498,0 0.047247,0 h 0.094494 0.4252233 c 0.039564,0 0.2003054,0.009 0.236235,0 0.034165,-0.009 0.062996,-0.0315 0.094494,-0.0472 0.031498,-0.0158 0.065193,-0.0277 0.094494,-0.0473 0.018531,-0.0124 0.028715,-0.0349 0.047247,-0.0473 0.029301,-0.0195 0.062996,-0.0315 0.094494,-0.0472 0.031498,-0.0158 0.06033,-0.0387 0.094494,-0.0473 0.048943,-0.0122 0.1348118,0 0.1889882,0 h 0.4724701 c 0.045776,0 0.2553102,0.009 0.2834823,0 0.033409,-0.0111 0.062996,-0.0315 0.094494,-0.0472 0.031498,-0.0158 0.065193,-0.0277 0.094494,-0.0473 0.018531,-0.0124 0.027326,-0.0373 0.047247,-0.0472 0.044545,-0.0223 0.094494,-0.0315 0.1417409,-0.0473 0.047247,-0.0315 0.09305,-0.0653 0.1417413,-0.0945 0.030197,-0.0181 0.061797,-0.0342 0.094494,-0.0472 0.04624,-0.0185 0.099035,-0.0216 0.141741,-0.0473 0.076394,-0.0458 0.117716,-0.13553 0.1889881,-0.18899 0.028173,-0.0211 0.062996,-0.0315 0.094494,-0.0472 0.0315,-0.0158 0.06109,-0.0361 0.09449,-0.0473 0.01494,-0.005 0.03316,0.007 0.04725,0 0.03984,-0.0199 0.05743,-0.0698 0.09449,-0.0945 0.0586,-0.0391 0.130386,-0.0554 0.188988,-0.0945 0.08645,-0.0576 0.0047,-0.0602 0.141741,-0.0945 0.03056,-0.008 0.06394,0.008 0.09449,0 0.08552,0.0285 0.08787,-0.0765 0.141741,-0.0945 0.0254,-0.008 0.148987,0 0.188988,0 h 0.04725 c 0.01575,0 0.04725,-0.0157 0.04725,0 0,0.0157 -0.063,0 -0.04725,0 h 0.09449 c 0.01575,0 0.03611,0.0111 0.04725,0 0.01114,-0.0111 -0.01114,-0.0361 0,-0.0472 0.01114,-0.0111 0.03611,0.0111 0.04725,0 0.01114,-0.0111 -0.007,-0.0332 0,-0.0472 0.01,-0.0199 0.0315,-0.0315 0.04725,-0.0473 0.01575,-0.0158 0.02733,-0.0373 0.04725,-0.0472 0.01409,-0.007 0.03231,0.005 0.04725,0 0.03341,-0.0111 0.063,-0.0315 0.09449,-0.0473 0.0315,-0.0157 0.06519,-0.0277 0.09449,-0.0472 0.02003,-0.0134 0.131967,-0.12219 0.141741,-0.14174 0.007,-0.0141 -0.01114,-0.0361 0,-0.0473 0.0015,-0.001 0.130282,0 0.141741,0 m -3.685263,5.90597 c 6e-7,-0.73185 0.1971969,-0.56282 -0.1889876,-0.75591 -0.1259922,-0.063 -0.2556724,-0.1191 -0.3779764,-0.18899 -0.049302,-0.0282 -0.089548,-0.0721 -0.1417409,-0.0945 -0.059685,-0.0256 -0.1293035,-0.0217 -0.1889882,-0.0473 -0.052193,-0.0224 -0.093049,-0.0653 -0.141741,-0.0945 -0.030197,-0.0181 -0.062996,-0.0315 -0.094494,-0.0473 -0.031498,-0.0157 -0.060329,-0.0387 -0.094494,-0.0472 -0.041635,-0.0104 -0.2555306,0.014 -0.283482,0 -0.048099,-0.024 -0.075312,-0.10338 -0.094494,-0.14174 -0.031498,-0.063 -0.072221,-0.12217 -0.094494,-0.18899 -0.00868,-0.026 0.010102,-0.17888 0,-0.18899 -0.00151,-0.002 -0.1302825,0 -0.141741,0 H 6.0476197 c -0.021278,0 -0.1273622,0.007 -0.141741,0 -0.012544,-0.006 -0.1354688,-0.12919 -0.1417412,-0.14174 -0.00854,-0.0171 0,-0.20337 0,-0.23623 v -0.47247 c 0,-0.0174 0.0019,-0.18709 0,-0.18899 -0.011136,-0.0111 -0.033161,0.007 -0.047247,0 -0.024424,-0.0122 -0.070071,-0.0823 -0.094494,-0.0945 -0.02563,-0.0128 -0.1760604,0.0129 -0.1889882,0 -0.011136,-0.0111 0.00498,-0.0323 0,-0.0473 -0.013904,-0.0417 -0.1168165,-0.2461 -0.141741,-0.28348 0.00471,-0.0936 -0.069593,-0.0224 -0.094494,-0.0473 -0.023625,-0.0236 0.023625,-0.11812 0,-0.14174 -0.010358,-0.0104 -0.1254927,0.0108 -0.141741,0 -0.037064,-0.0247 -0.058858,-0.0678 -0.094494,-0.0945 -0.028173,-0.0211 -0.065193,-0.0277 -0.094494,-0.0472 -0.018531,-0.0124 -0.027326,-0.0373 -0.047247,-0.0472 -0.014086,-0.007 -0.034143,0.009 -0.047247,0 -0.037064,-0.0247 -0.058858,-0.0678 -0.094494,-0.0945 -0.028173,-0.0211 -0.065193,-0.0277 -0.094494,-0.0473 -0.018531,-0.0123 -0.027326,-0.0373 -0.047247,-0.0473 -0.014086,-0.007 -0.036111,0.0111 -0.047247,0 -0.011136,-0.0111 0.011136,-0.0361 0,-0.0472 -0.011136,-0.0111 -0.031498,0 -0.047247,0 H 4.2522334 c -0.015748,0 -0.047247,0.0157 -0.047247,0 0,-0.0157 0.031498,0 0.047247,0 m 3.1655496,4.53587 -1.7623085,0.0167 c 0,0 1.9716666,-0.008 1.9985435,-0.0167 0.02113,-0.007 0.028715,-0.0349 0.047247,-0.0472 0.029301,-0.0195 0.065193,-0.0277 0.094494,-0.0472 0.018531,-0.0124 0.031498,-0.0315 0.047247,-0.0472 0.015748,-0.0158 0.034892,-0.0287 0.047247,-0.0473 0.019534,-0.0293 0.026117,-0.0663 0.047247,-0.0945 0.026727,-0.0356 0.067767,-0.0589 0.094494,-0.0945 0.02113,-0.0282 0.022347,-0.0696 0.047247,-0.0945 0.011136,-0.0111 0.036111,0.0111 0.047247,0 0.011136,-0.0111 -0.00704,-0.0332 0,-0.0473 0.024424,-0.0488 0.070071,-0.0456 0.094494,-0.0945 0.00704,-0.0141 0,-0.0315 0,-0.0473 0.015749,-0.0315 0.027713,-0.0652 0.047247,-0.0945 0.012353,-0.0185 0.034892,-0.0287 0.047247,-0.0473 0.019534,-0.0293 0.031498,-0.063 0.047247,-0.0945 0.015748,-0.0315 0.034168,-0.0618 0.047247,-0.0945 0.018497,-0.0462 0.017365,-0.1019 0.047247,-0.14174 0.02113,-0.0282 0.066321,-0.0261 0.094494,-0.0473 0.035636,-0.0267 0.067767,-0.0589 0.094494,-0.0945 0.02113,-0.0282 0.027713,-0.0652 0.047247,-0.0945 0.024709,-0.0371 0.074573,-0.0547 0.094494,-0.0945 0.01247,-0.0249 -0.013716,-0.12116 0,-0.14174 0.024709,-0.0371 0.062996,-0.063 0.094494,-0.0945 0.031498,-0.0315 0.058858,-0.0678 0.094494,-0.0945 0.028173,-0.0211 0.066321,-0.0261 0.094494,-0.0472 0.339847,-0.25489 -0.099709,0.0525 0.1417412,-0.18899 0.1171308,-0.11713 0.1243865,-0.0672 0.2362351,-0.14174 0.117524,-0.0784 0.00543,-0.0109 0.047247,-0.0945 0.00627,-0.0125 0.1291966,-0.13547 0.1417413,-0.14174 0.3591256,-0.17956 0.02792,-0.007 0.1889879,-0.0473 0.048316,-0.0121 0.0955,-0.0288 0.1417412,-0.0472 0.1288023,-0.0515 0.060185,-0.043 0.1889873,-0.0945 0.09248,-0.037 0.191001,-0.0575 0.283482,-0.0945 0.0327,-0.0131 0.06109,-0.0361 0.09449,-0.0472 0.01839,-0.006 0.134409,0.007 0.141741,0 0.106195,-0.10619 0.0905,-0.15539 0.141741,-0.28348 0.02616,-0.0654 0.063,-0.12599 0.09449,-0.18899 0.01575,-0.0315 0.02771,-0.0652 0.04725,-0.0945 -0.0047,-0.0936 0.06959,-0.0224 0.09449,-0.0473 0.0097,-0.01 -0.0094,-0.12301 0,-0.14174 0.01,-0.0199 0.0315,-0.0315 0.04725,-0.0473 0.05406,-0.0541 0.05593,-0.0659 0.141741,-0.0945 0.140646,-0.0469 -0.09694,0.11187 0.141741,-0.0473 0.01853,-0.0123 0.0315,-0.0315 0.04725,-0.0472 0.0315,-0.0157 0.06519,-0.0277 0.09449,-0.0472 0.03706,-0.0247 0.05465,-0.0746 0.09449,-0.0945 0.0378,-0.0189 0.103943,0.0189 0.141741,0 0.07877,-0.0394 0.127656,-0.18014 0.248047,-0.18014"
       inkscape:connector-curvature="0"
       sodipodi:nodetypes="ccsscccccccccscccccscccccccccscsccccccsscccccccccccccccccsssssssscscccccccccccccccccccssccssccccccccccccccccsssssccsccccccccscccccccccccccsccccccccccccccccccccccccc" />
  </g>
</svg>
